<svg xmlns="http://www.w3.org/2000/svg" width="512" height="512" viewBox="0 0 512 512" fill="none">
  <path d="M256 64c0 0 -120 80 -120 200c0 88.366 71.634 160 160 160c0 0 -40 -40 -40 -120c0 -80 80 -160 80 -160s-40 40 -40 80c0 40 40 80 40 80s40 -80 40 -160c0 -80 -120 -80 -120 -80z" fill="#E878A8"/>
  <path d="M256 64c0 0 40 40 40 120c0 80 -80 160 -80 160s40 -40 40 -80c0 -40 -40 -80 -40 -80s-40 80 -40 160c0 53.019 42.981 96 96 96c88.366 0 160 -71.634 160 -160c0 -120 -176 -216 -176 -216z" fill="#D45A8A"/>
</svg>